<?xml version="1.0" standalone="no"?>
<!DOCTYPE svg PUBLIC "-//W3C//DTD SVG 20010904//EN"
 "http://www.w3.org/TR/2001/REC-SVG-20010904/DTD/svg10.dtd">
<svg version="1.0" xmlns="http://www.w3.org/2000/svg"
 width="512.000000pt" height="512.000000pt" viewBox="0 0 512.000000 512.000000"
 preserveAspectRatio="xMidYMid meet">
<metadata>
Created by potrace 1.14, written by Peter Selinger 2001-2017
</metadata>
<g transform="translate(0.000000,512.000000) scale(0.100000,-0.100000)"
fill="#000000" stroke="none">
<path d="M3238 4554 c-3 -2 -46 -8 -138 -19 -25 -3 -56 -8 -70 -10 -14 -2 -45
-7 -70 -10 -25 -3 -56 -8 -70 -10 -51 -7 -106 -15 -150 -20 -25 -4 -56 -8 -70
-10 -14 -2 -61 -9 -105 -15 -44 -6 -91 -13 -105 -15 -14 -2 -52 -7 -85 -11
-33 -5 -62 -8 -65 -9 -13 -3 -128 -19 -215 -30 -22 -3 -71 -10 -110 -15 -38
-6 -83 -12 -100 -14 -16 -2 -46 -7 -65 -10 -19 -3 -51 -8 -70 -10 -70 -9 -135
-18 -159 -22 -13 -2 -45 -6 -70 -10 -25 -3 -56 -7 -67 -9 -12 -2 -48 -7 -80
-10 -33 -4 -68 -9 -78 -11 -10 -2 -105 -15 -210 -29 -105 -14 -216 -30 -246
-35 -30 -5 -77 -12 -105 -15 -27 -3 -63 -8 -80 -10 -264 -39 -265 -39 -344
-103 -123 -100 -174 -288 -147 -546 16 -147 58 -265 130 -358 29 -39 32 -47
18 -51 -9 -3 -57 -17 -107 -32 -94 -28 -125 -46 -125 -76 0 -23 45 -76 73 -85
175 -53 236 -193 217 -500 l-3 -51 -101 -32 c-167 -54 -266 -103 -266 -132 0
-18 33 -37 77 -44 26 -4 51 -9 56 -12 4 -2 -6 -22 -23 -43 -78 -98 -110 -221
-105 -404 7 -290 98 -484 258 -550 34 -14 204 -71 377 -126 173 -56 335 -108
360 -117 25 -8 122 -39 215 -70 94 -30 260 -84 370 -120 579 -188 560 -183
596 -172 27 7 315 77 389 94 8 2 35 8 60 14 25 7 56 14 69 17 29 6 672 162
1011 245 235 58 358 87 390 94 8 2 51 12 95 24 44 11 91 22 105 25 14 2 90 21
170 41 80 20 155 38 166 41 99 20 309 75 316 82 35 35 -59 92 -249 152 -119
38 -113 26 -108 205 3 143 7 162 45 241 30 62 73 105 120 119 82 25 136 79
119 121 -9 26 -20 34 -54 40 -13 2 -36 9 -49 14 l-25 9 48 50 c85 87 142 232
158 400 18 199 -3 333 -71 441 -19 30 -34 55 -33 56 1 1 58 16 127 33 151 38
167 53 102 97 -37 26 -161 75 -258 104 l-70 21 -4 47 c-7 112 -2 212 14 292
11 48 58 130 91 157 18 16 55 36 82 45 88 31 128 93 86 130 -10 9 -214 75
-453 146 -239 72 -628 189 -865 260 -380 115 -457 136 -467 126z m-2530 -665
c119 -39 294 -96 387 -126 94 -30 208 -68 255 -83 167 -55 886 -289 928 -302
37 -11 46 -22 44 -49 -1 -6 -14 -414 -16 -511 -1 -31 -4 -60 -7 -63 -4 -3
-111 24 -240 60 -129 36 -256 72 -284 80 -27 7 -153 42 -280 78 -126 36 -354
100 -505 142 -615 172 -569 153 -619 260 -39 82 -48 131 -51 280 -3 114 14
193 53 249 20 29 67 55 100 56 9 0 115 -32 235 -71z m3988 -98 c-40 -77 -55
-225 -43 -445 l2 -40 -130 -33 c-71 -18 -139 -35 -150 -37 -19 -4 -1138 -282
-1698 -422 -141 -35 -261 -64 -265 -64 -8 0 -8 69 2 330 3 63 5 152 5 196 l1
81 88 18 c48 9 96 19 107 21 11 2 106 22 210 44 105 21 202 42 218 45 40 8 64
12 269 55 103 22 200 42 215 45 16 2 83 16 148 30 66 14 134 28 150 31 17 3
147 29 290 59 540 112 590 122 593 119 2 -1 -4 -16 -12 -33z m-2 -805 c85 -35
123 -183 102 -394 -12 -121 -58 -231 -114 -270 -15 -11 -63 -30 -107 -42 -44
-12 -150 -41 -235 -65 -85 -24 -398 -112 -695 -195 -297 -83 -603 -169 -679
-190 -77 -22 -142 -38 -144 -35 -6 5 -7 26 -17 344 -3 118 -6 217 -7 220 -4
42 3 47 105 79 94 30 479 156 1132 369 143 47 330 107 415 135 85 27 160 51
165 53 22 7 47 4 79 -9z m-4124 -151 c41 -9 138 -29 215 -44 77 -16 232 -48
345 -71 113 -23 214 -44 225 -46 11 -2 94 -19 185 -38 277 -58 314 -65 349
-71 19 -3 37 -7 40 -9 3 -2 22 -7 41 -10 19 -3 112 -21 205 -41 94 -19 179
-37 190 -39 67 -13 330 -68 332 -69 1 -2 5 -108 8 -237 4 -129 8 -266 10 -303
3 -66 2 -69 -19 -64 -11 3 -32 8 -46 11 -14 3 -126 31 -250 62 -124 31 -232
57 -240 59 -8 2 -215 54 -460 115 -245 61 -623 155 -840 209 l-395 98 2 29
c13 204 -3 379 -43 455 -8 15 -14 30 -14 32 0 5 47 -3 160 -28z m-158 -819
c67 -22 541 -176 1023 -333 110 -36 319 -104 465 -152 l265 -87 -1 -75 c-2
-121 -15 -534 -18 -536 -1 -2 -36 7 -77 18 -41 11 -81 23 -89 25 -8 2 -46 12
-85 23 -38 11 -126 36 -195 55 -69 19 -334 93 -590 165 -256 72 -532 149 -615
172 -189 52 -202 57 -232 88 -62 66 -93 172 -98 334 -5 171 28 276 98 311 43
21 64 20 149 -8z m4124 -157 c-40 -100 -56 -289 -36 -422 l7 -47 -36 -9 c-118
-31 -409 -104 -426 -107 -20 -4 -311 -76 -1248 -310 -296 -74 -541 -134 -544
-134 -3 0 -2 100 2 223 4 122 8 257 9 299 1 43 4 80 7 82 4 4 159 40 224 52
11 2 73 14 139 28 81 16 128 21 148 16 36 -11 36 -11 188 39 69 22 139 43 155
45 17 3 93 19 170 35 152 32 914 190 955 197 14 3 44 9 68 15 23 5 57 12 75
15 17 3 59 11 92 18 33 7 62 11 64 10 2 -2 -4 -22 -13 -45z"/>
</g>
</svg>
